<?xml version="1.0" encoding="utf-8"?>
<svg version="1.1" xmlns="http://www.w3.org/2000/svg" xmlns:xlink="http://www.w3.org/1999/xlink" x="0px" y="0px" width="184px"
	 height="75px" viewBox="0 0 184 75" enable-background="new 0 0 184 75" xml:space="preserve">
<path fill="#1A405A" d="M103.9,50.7c0.5,3.4,1.9,6.3,5.1,8.1c2.5,1.4,5.3,1.8,8.1,1.6c1.9-0.1,3.4-2.2,3.2-4.2
	c-0.3-2.1-1.8-3.4-3.9-3.4c-3.3-0.1-5-1.6-5-4.9c-0.1-4.6,0-9.3,0-13.9c0-0.4,0.1-0.5,0.5-0.5c0.9,0,1.7,0,2.6,0
	c2,0,3.6-1.6,3.7-3.7c0.1-1.9-1.4-3.7-3.3-3.9c-0.9-0.1-1.8-0.1-2.6,0c-0.6,0-0.8-0.1-0.8-0.8c0-3.2,0-6.4,0-9.7
	c0-2.1-1.7-3.7-3.8-3.8c-2-0.1-3.8,1.5-3.9,3.5c-0.1,3.2-0.1,6.4-0.1,9.6c0,0.8-0.1,1.1-1,1.2c-2.1,0.1-3.6,1.9-3.5,4
	c0.1,2.1,1.7,3.7,3.8,3.7c0.6,0,0.7,0.2,0.7,0.7c0,2.5,0,5.1,0,8.1C103.8,44.8,103.5,47.7,103.9,50.7z"/>
<path fill="#1A405A" d="M0.5,33.7c1.1-2.9,3.3-4.8,6-6.1c7.3-3.5,15.4-1.9,20.9,4.1c1.5,1.6,1.4,3.9,0,5.4c-1.2,1.2-3.7,1.6-5.3,0.1
	c-0.6-0.6-1.2-1.2-1.9-1.7c-3.7-3.1-8.7-2.9-12,0.3c-0.8,0.8-0.7,1.1,0.4,1.5c4.3,1.4,8.5,2.8,12.8,4.2c0.8,0.3,1.5,0.6,2.3,0.9
	c5.3,2.3,6.8,9.2,2.3,13.7c-3.1,3.1-6.9,4.3-11.1,4.5C9.4,60.6,5,58.5,1.4,54.7C0.7,53.9,0.4,53,0,52.1c0-0.2,0-0.3,0-0.5
	c0.1-1.1,0.4-2.1,1.2-2.8c1.3-1.2,3.4-1.4,4.9-0.3c0.9,0.7,1.7,1.5,2.5,2.2c1.6,1.3,3.4,2.1,5.5,2.1c2.4,0,4.5-0.8,6.2-2.6
	c0.4-0.4,0.3-0.7-0.2-0.9c-0.4-0.2-0.7-0.3-1.1-0.4c-4.1-1.4-8.3-2.6-12.3-4.1c-2.1-0.7-3.9-1.8-5.3-3.5C0.6,40.2,0.2,39,0,37.7
	C-0.2,35.3,0.3,34,0.5,33.7z M34.1,47.9c0,1.2,0.1,2.4,0.3,3.6c0.7,3.5,2.5,6.3,5.9,7.7c2.3,1,4.6,1.2,7.1,1.1
	c0.7,0,1.3-0.3,1.8-0.7c1.4-1,1.9-2.8,1.3-4.4c-0.5-1.6-1.9-2.5-3.7-2.6c-3.3,0-5-1.5-5.1-4.8c-0.1-4.7,0-9.3,0-14
	c0-0.4,0.1-0.5,0.5-0.5c0.9,0,1.8,0,2.6,0c1.9,0,3.5-1.6,3.6-3.6c0.1-2-1.3-3.8-3.2-4c-0.9-0.1-1.8-0.1-2.7-0.1
	c-0.6,0-0.8-0.1-0.8-0.8c0-3.1,0-6.2,0-9.3c0-0.4,0-0.8-0.1-1.2c-0.4-1.8-2.3-3.1-4.1-2.9c-2.1,0.2-3.5,1.8-3.5,3.8
	c0,3.1,0,6.3,0,9.4c0,0.7-0.1,1-0.9,1c-2.1,0.1-3.6,1.9-3.6,4c0.1,2.1,1.7,3.7,3.8,3.7c0.5,0,0.6,0.2,0.6,0.7c0,2.5,0,5.1,0,7.6
	C34.1,43.8,34.1,45.8,34.1,47.9z M84.9,60.2c-4.3,0.7-8.4,0.1-12.2-2.3c-0.1-0.1-0.3-0.2-0.4-0.2c-0.2,0.2-0.1,0.4-0.1,0.6
	c0,3.9-0.1,7.8,0,11.7c0.1,2.2-0.7,3.7-2.7,4.6c-0.8,0-1.6,0-2.3,0c-2-0.8-2.7-2.2-2.7-4.3c0.1-9.1,0-18.2,0-27.3
	c0-9.1,7.2-16.7,16.3-17.1c8.5-0.4,15.9,4.9,17.9,13.1C101.3,50.1,93.5,58.8,84.9,60.2z M91.5,43.1c0-5.2-4.4-9.6-9.6-9.6
	c-5.3,0-9.7,4.3-9.7,9.5c0,5.3,4.3,9.7,9.6,9.7C87.1,52.8,91.5,48.3,91.5,43.1z M154.7,43.2c-0.1,2.3-1.7,3.7-4,3.7
	c-3.6,0-7.1,0-10.7,0c-3.6,0-7.2,0-10.7,0c-0.9,0-0.9,0-0.4,0.8c2.9,5.2,9.8,6.6,14.5,2.9c1.1-0.9,2.3-1.2,3.7-0.9
	c1.4,0.4,2.4,1.3,2.7,2.8c0.3,1.5,0,2.9-1.3,3.9c-6.7,5.6-16.4,5.4-22.8-0.5c-4.9-4.5-6.6-10.2-5.2-16.6c1.4-6.4,5.4-10.8,11.7-12.7
	c11.4-3.5,21.3,4.6,22.4,14C154.6,41.5,154.7,42.4,154.7,43.2z M146.1,39.2c-1.3-3.3-5.1-5.8-9-5.7c-3.7,0.1-7.6,2.6-8.6,5.7
	C134.4,39.2,140.3,39.2,146.1,39.2z M184,29.7c-0.6-1.8-2.1-2.8-3.9-3.3c-5.1-1.3-9.9-0.9-14.4,1.9c-0.4,0.3-0.6,0.3-0.8-0.2
	c-1.1-2.6-4.4-3.2-6.4-1.1c-0.8,0.9-1,1.9-1,3.1c0,8.7,0,17.3,0,26c0,0.3,0,0.6,0.1,0.9c0.2,2.2,1.9,3.6,4.1,3.5
	c2-0.1,3.5-1.8,3.5-3.9c0-4.6,0-9.2,0-13.9c0-2.3,0.6-4.4,2-6.2c1.8-2.3,4.1-3.8,7.2-3.4c1.5,0.2,2.9,0.6,4.3,1.2
	c2.2,0.9,4.3,0,5.2-2.3c0-0.1,0.1-0.2,0.2-0.3C184,31,184,30.3,184,29.7z"/>
<linearGradient id="SVGID_1_" gradientUnits="userSpaceOnUse" x1="57.4377" y1="60.6742" x2="57.4377" y2="24.225">
	<stop  offset="0" style="stop-color:#1A405A"/>
	<stop  offset="0.15" style="stop-color:#1A405A"/>
	<stop  offset="0.5" style="stop-color:#1A405A;stop-opacity:0.5"/>
	<stop  offset="1" style="stop-color:#1A405A;stop-opacity:0"/>
</linearGradient>
<path fill="url(#SVGID_1_)" d="M61.3,56.9c0,2-1.4,3.5-3.5,3.8c-1.8,0.2-3.6-1.1-4.1-2.9c-0.1-0.4-0.1-0.8-0.1-1.2
	c0-3.1,0-32.4,0-32.4l7.7,0.1C61.3,24.3,61.3,53.7,61.3,56.9z"/>
<circle fill="#77B31D" cx="57.4" cy="8.2" r="7.8"/>
</svg>
